# xmcd
#
# Track frame offsets: 
#        150
#        16039
#        31531
#        52965
#        86868
#        103746
#        149394
#        167059
#        189489
#        211766
#        235903
#        278799
#
# Disc length: 4036 seconds
#
# Revision: 0
# Processed by: cddbd v1.5.2PL0 Copyright (c) Steve Scherf et al.
# Submitted via: ExactAudioCopy v1.3
#
DISCID=970fc20c
DTITLE=Dani Wilde, Victoria Smith, Samantha Fish - Girls With Guitars
DYEAR=2012
DGENRE=Texas Blues, Modern Electric Blues
TTITLE0=Bitch
TTITLE1=Don't Go Making Me Cry
TTITLE2=Red Bloode Woman
TTITLE3=I Put A Spell On You
TTITLE4=Leaving Kind
TTITLE5=Money To Burn
TTITLE6=Juice Me Up
TTITLE7=Who's Loving You
TTITLE8=Down In The Swamp
TTITLE9=Mississippi Kisses
TTITLE10=Runaway
TTITLE11=Jet Airliner
EXTD=
EXTT0=
EXTT1=
EXTT2=
EXTT3=
EXTT4=
EXTT5=
EXTT6=
EXTT7=
EXTT8=
EXTT9=
EXTT10=
EXTT11=
PLAYORDER=
